<svg xmlns="http://www.w3.org/2000/svg" viewBox="0 0 958.15 777.59"><defs><style>.cls-1{fill:#0a6777;}.cls-1,.cls-2,.cls-3{fill-rule:evenodd;}.cls-2,.cls-4{fill:#00969b;}.cls-3{fill:#04afa9;}.cls-5{fill:#010101;}</style></defs><g id="Layer_2" data-name="Layer 2"><g id="Layer_1-2" data-name="Layer 1"><polygon class="cls-1" points="726.15 64.19 584.84 0 340.76 107.18 340.76 314.64 340.76 314.64 482.06 378.82 533.45 356.35 533.45 356.25 726.15 263.42 726.15 64.19"/><polygon class="cls-1" points="604.1 255.66 462.8 191.47 340.76 245.06 340.76 452.52 340.76 452.52 482.06 516.7 533.45 494.23 533.45 494.13 604.1 463.11 604.1 255.66"/><polygon class="cls-2" points="482.06 516.7 482.06 173.94 340.76 107.18 340.76 452.52 482.06 516.7"/><polygon class="cls-3" points="482.06 173.94 726.15 64.19 584.84 0 340.76 107.18 482.06 173.94"/><path class="cls-4" d="M0,607.12a10,10,0,0,1,10.06-10.06h27.3c21.82,0,35,12.94,35,31.62v.26c0,21.17-16.46,32.14-37,32.14H20.12v18.16A10,10,0,0,1,10.06,689.3,10,10,0,0,1,0,679.24Zm36.06,36.06c10.06,0,15.94-6,15.94-13.85v-.26c0-9-6.28-13.85-16.34-13.85H20.12v28Z"/><path class="cls-4" d="M87.29,607.12a10,10,0,0,1,10-10.06h31.75c11.63,0,20.64,3.27,26.65,9.28,5.1,5.09,7.84,12.28,7.84,20.9v.26c0,14.37-7.19,23.26-18.29,27.83l14,17c2,2.48,3.27,4.57,3.27,7.7A9.37,9.37,0,0,1,153,689.3c-4.57,0-7.58-2.22-9.93-5.23l-19.6-24.82H107.4v20a10.06,10.06,0,1,1-20.11,0Zm40.49,34.36c9.8,0,15.42-5.22,15.42-12.93v-.26c0-8.62-6-13.07-15.81-13.07h-20v26.26Z"/><path class="cls-4" d="M177.7,643.05v-.26c0-26,20.52-47.29,48.74-47.29s48.46,21,48.46,47v.26c0,26-20.51,47.29-48.73,47.29S177.7,669.05,177.7,643.05Zm76.17,0v-.26c0-15.68-11.5-28.74-27.7-28.74s-27.43,12.8-27.43,28.48v.26c0,15.68,11.49,28.74,27.7,28.74S253.87,658.73,253.87,643.05Z"/><path class="cls-4" d="M288.77,643.05v-.26c0-26,19.59-47.29,47.68-47.29,13.72,0,23,3.65,30.57,9.27a10.07,10.07,0,0,1,3.92,8,9.81,9.81,0,0,1-9.93,9.8,10.61,10.61,0,0,1-6-2c-5.62-4.18-11.49-6.53-18.68-6.53-15.42,0-26.52,12.8-26.52,28.48v.26c0,15.68,10.85,28.74,26.52,28.74,8.49,0,14.11-2.61,19.86-7.18a9.31,9.31,0,1,1,12,14.23c-8.23,7.19-17.9,11.5-32.53,11.5C308.76,690.08,288.77,669.31,288.77,643.05Z"/><path class="cls-4" d="M382.58,643.05v-.26c0-26,20.51-47.29,48.73-47.29s48.47,21,48.47,47v.26c0,26-20.51,47.29-48.73,47.29S382.58,669.05,382.58,643.05Zm76.17,0v-.26c0-15.68-11.5-28.74-27.7-28.74s-27.43,12.8-27.43,28.48v.26c0,15.68,11.49,28.74,27.69,28.74S458.75,658.73,458.75,643.05Z"/><path class="cls-4" d="M497.7,606.6a10,10,0,0,1,10.06-10.06h2.09c4.83,0,7.71,2.35,10.45,5.88l38.8,51V606.21a9.93,9.93,0,1,1,19.86,0V679A10,10,0,0,1,568.9,689h-.65c-4.84,0-7.71-2.35-10.45-5.88l-40.24-52.78v49a9.93,9.93,0,1,1-19.86,0Z"/><path class="cls-4" d="M600.92,606.6A10,10,0,0,1,611,596.54h2.09c4.84,0,7.71,2.35,10.45,5.88l38.81,51V606.21a9.93,9.93,0,1,1,19.85,0V679A10,10,0,0,1,672.12,689h-.65c-4.83,0-7.71-2.35-10.45-5.88l-40.24-52.78v49a9.93,9.93,0,1,1-19.86,0Z"/><path class="cls-4" d="M704.15,678.45V607.12a10,10,0,0,1,10.06-10.06H764.9a9,9,0,0,1,9,9,8.92,8.92,0,0,1-9,8.88H724.14v18.55H759a9,9,0,0,1,9,9,8.92,8.92,0,0,1-9,8.88H724.14v19.21h41.41a9,9,0,0,1,9,9,8.94,8.94,0,0,1-9,8.89H714.21A10,10,0,0,1,704.15,678.45Z"/><path class="cls-4" d="M787.64,643.05v-.26c0-26,19.6-47.29,47.69-47.29,13.72,0,23,3.65,30.57,9.27a10.07,10.07,0,0,1,3.92,8,9.81,9.81,0,0,1-9.93,9.8,10.61,10.61,0,0,1-6-2c-5.62-4.18-11.5-6.53-18.68-6.53-15.42,0-26.52,12.8-26.52,28.48v.26c0,15.68,10.84,28.74,26.52,28.74,8.49,0,14.11-2.61,19.86-7.18a9.31,9.31,0,1,1,12,14.23c-8.24,7.19-17.9,11.5-32.53,11.5C807.63,690.08,787.64,669.31,787.64,643.05Z"/><path class="cls-4" d="M909.42,615.62H890.08a9.28,9.28,0,0,1,0-18.56h58.79a9.28,9.28,0,0,1,0,18.56H929.54v63.62a10.06,10.06,0,1,1-20.12,0Z"/><path class="cls-5" d="M249.56,769.57a3,3,0,0,1-1.26-2.51,3.19,3.19,0,0,1,3.18-3.25,2.89,2.89,0,0,1,2,.75c5.51,4.68,11,6.93,18.46,6.93,7.86,0,13-4.17,13-9.94v-.17c0-5.43-2.93-8.52-15.21-11.1-13.45-2.93-19.63-7.27-19.63-16.88v-.17c0-9.19,8.1-16,19.21-16,7.69,0,13.29,1.92,18.63,5.76a3.39,3.39,0,0,1,1.42,2.67,3.17,3.17,0,0,1-3.17,3.18,3.1,3.1,0,0,1-1.92-.58,24.43,24.43,0,0,0-15.12-5.1c-7.6,0-12.45,4.17-12.45,9.44v.16c0,5.52,3,8.61,15.87,11.37,13,2.84,19.05,7.6,19.05,16.54v.16c0,10-8.36,16.54-20,16.54A34.13,34.13,0,0,1,249.56,769.57Z"/><path class="cls-5" d="M302.53,747.52v-.17c0-16.12,12.11-30.24,29.9-30.24s29.74,13.95,29.74,30.07v.17c0,16.12-12.11,30.24-29.9,30.24S302.53,763.64,302.53,747.52Zm52.79,0v-.17c0-13.28-9.69-24.14-23.05-24.14s-22.89,10.69-22.89,24v.17c0,13.28,9.69,24.14,23.05,24.14S355.32,760.8,355.32,747.52Z"/><path class="cls-5" d="M376.14,721a3.3,3.3,0,1,1,6.6,0v49.45h30.32a3.07,3.07,0,0,1,3,3.09,3,3,0,0,1-3,3H379.4a3.33,3.33,0,0,1-3.26-3.34Z"/><path class="cls-5" d="M425.26,752.11V721a3.3,3.3,0,1,1,6.6,0V751.7c0,12.61,6.77,19.71,17.88,19.71,10.78,0,17.63-6.52,17.63-19.3V721a3.3,3.3,0,1,1,6.6,0v30.57c0,17-9.78,25.9-24.4,25.9C435.12,777.51,425.26,768.65,425.26,752.11Z"/><path class="cls-5" d="M505.05,724.21H488.1a3.06,3.06,0,0,1-3.09-3,3.13,3.13,0,0,1,3.09-3.09h40.59a3.15,3.15,0,0,1,3.1,3.09,3.07,3.07,0,0,1-3.1,3h-17v49.45a3.35,3.35,0,1,1-6.69,0Z"/><path class="cls-5" d="M544.32,721a3.3,3.3,0,1,1,6.6,0v52.62a3.3,3.3,0,1,1-6.6,0Z"/><path class="cls-5" d="M565.46,747.52v-.17c0-16.12,12.12-30.24,29.91-30.24s29.74,13.95,29.74,30.07v.17c0,16.12-12.11,30.24-29.91,30.24S565.46,763.64,565.46,747.52Zm52.8,0v-.17c0-13.28-9.69-24.14-23.06-24.14s-22.89,10.69-22.89,24v.17c0,13.28,9.7,24.14,23.06,24.14S618.26,760.8,618.26,747.52Z"/><path class="cls-5" d="M639.07,721.12a3.33,3.33,0,0,1,3.26-3.26h.92a4,4,0,0,1,3.34,1.93l35.5,45.27V721a3.22,3.22,0,1,1,6.44,0v52.8a3,3,0,0,1-3,3.09h-.34c-1.42,0-2.42-.84-3.42-2l-36.25-46.36v45.28a3.22,3.22,0,1,1-6.44,0Z"/></g></g></svg>