<svg xmlns="http://www.w3.org/2000/svg" viewBox="0 0 982.25 428.99"><defs><style>.cls-1{fill:#0a6777;}.cls-1,.cls-2,.cls-3{fill-rule:evenodd;}.cls-2,.cls-4{fill:#00969b;}.cls-3{fill:#04afa9;}.cls-5{fill:#010101;}</style></defs><g id="Layer_2" data-name="Layer 2"><g id="Layer_1-2" data-name="Layer 1"><polygon class="cls-1" points="319.97 53.29 202.65 0 0 88.99 0 261.23 0 261.23 117.32 314.52 159.99 295.86 159.99 295.78 319.97 218.71 319.97 53.29"/><polygon class="cls-1" points="218.64 212.26 101.33 158.97 0 203.46 0 375.7 0 375.71 117.32 429 159.99 410.34 159.99 410.25 218.64 384.5 218.64 212.26"/><polygon class="cls-2" points="117.32 429 117.32 144.41 0 88.99 0 375.71 117.32 429"/><polygon class="cls-3" points="117.32 144.41 319.97 53.29 202.65 0 0 88.99 117.32 144.41"/><path class="cls-4" d="M395.32,165.85a6.11,6.11,0,0,1,6.16-6.17h16.73c13.36,0,21.45,7.93,21.45,19.37v.16c0,13-10.09,19.69-22.65,19.69h-9.37V210a6.16,6.16,0,1,1-12.32,0Zm22.09,22.08c6.16,0,9.76-3.68,9.76-8.48v-.16c0-5.52-3.84-8.48-10-8.48h-9.53v17.12Z"/><path class="cls-4" d="M448.79,165.85a6.11,6.11,0,0,1,6.16-6.17H474.4c7.12,0,12.64,2,16.32,5.69,3.12,3.12,4.8,7.52,4.8,12.8v.16c0,8.8-4.4,14.25-11.2,17l8.56,10.4a7.18,7.18,0,0,1,2,4.72,5.73,5.73,0,0,1-5.84,5.68A7.37,7.37,0,0,1,483,213l-12-15.2h-9.84V210a6.16,6.16,0,0,1-12.32,0Zm24.81,21c6,0,9.44-3.2,9.44-7.92v-.16c0-5.28-3.68-8-9.68-8H461.11v16.08Z"/><path class="cls-4" d="M504.17,187.85v-.16c0-15.92,12.57-29,29.85-29s29.7,12.89,29.7,28.81v.16c0,15.93-12.57,29-29.86,29S504.17,203.78,504.17,187.85Zm46.66,0v-.16c0-9.6-7-17.6-17-17.6s-16.8,7.84-16.8,17.44v.16c0,9.61,7,17.61,17,17.61S550.83,197.46,550.83,187.85Z"/><path class="cls-4" d="M572.21,187.85v-.16c0-15.92,12-29,29.21-29,8.4,0,14.08,2.24,18.73,5.69a6.16,6.16,0,0,1,2.4,4.88,6,6,0,0,1-6.09,6,6.47,6.47,0,0,1-3.68-1.2,18.42,18.42,0,0,0-11.44-4c-9.44,0-16.25,7.84-16.25,17.44v.16c0,9.61,6.65,17.61,16.25,17.61a18,18,0,0,0,12.16-4.4,5.71,5.71,0,1,1,7.37,8.72c-5,4.4-11,7-19.93,7C584.45,216.66,572.21,203.94,572.21,187.85Z"/><path class="cls-4" d="M629.68,187.85v-.16c0-15.92,12.56-29,29.85-29s29.69,12.89,29.69,28.81v.16c0,15.93-12.57,29-29.85,29S629.68,203.78,629.68,187.85Zm46.65,0v-.16c0-9.6-7-17.6-17-17.6s-16.81,7.84-16.81,17.44v.16c0,9.61,7,17.61,17,17.61S676.33,197.46,676.33,187.85Z"/><path class="cls-4" d="M700.19,165.53a6.11,6.11,0,0,1,6.16-6.17h1.28c3,0,4.73,1.44,6.41,3.61l23.77,31.21V165.29a6.08,6.08,0,1,1,12.16,0v44.57a6.11,6.11,0,0,1-6.16,6.16h-.4c-3,0-4.72-1.44-6.4-3.6l-24.65-32.33v30a6.09,6.09,0,0,1-12.17,0Z"/><path class="cls-4" d="M763.42,165.53a6.12,6.12,0,0,1,6.17-6.17h1.28c3,0,4.72,1.44,6.4,3.61L801,194.18V165.29a6.08,6.08,0,1,1,12.16,0v44.57A6.11,6.11,0,0,1,807,216h-.4c-3,0-4.72-1.44-6.4-3.6l-24.65-32.33v30a6.09,6.09,0,0,1-12.17,0Z"/><path class="cls-4" d="M826.66,209.54V165.85a6.11,6.11,0,0,1,6.16-6.17h31a5.54,5.54,0,0,1,5.52,5.53,5.46,5.46,0,0,1-5.52,5.44h-25V182h21.37a5.53,5.53,0,0,1,5.52,5.52,5.47,5.47,0,0,1-5.52,5.45H838.9v11.76h25.37a5.53,5.53,0,0,1,5.52,5.52,5.46,5.46,0,0,1-5.52,5.44H832.82A6.11,6.11,0,0,1,826.66,209.54Z"/><path class="cls-4" d="M877.8,187.85v-.16c0-15.92,12-29,29.21-29,8.41,0,14.09,2.24,18.73,5.69a6.16,6.16,0,0,1,2.4,4.88,6,6,0,0,1-6.08,6,6.47,6.47,0,0,1-3.68-1.2,18.45,18.45,0,0,0-11.45-4c-9.44,0-16.24,7.84-16.24,17.44v.16c0,9.61,6.64,17.61,16.24,17.61a18,18,0,0,0,12.17-4.4,5.71,5.71,0,1,1,7.36,8.72c-5,4.4-11,7-19.93,7C890.05,216.66,877.8,203.94,877.8,187.85Z"/><path class="cls-4" d="M952.4,171.05H940.55a5.69,5.69,0,0,1,0-11.37h36a5.69,5.69,0,1,1,0,11.37H964.72v39a6.16,6.16,0,0,1-12.32,0Z"/><path class="cls-5" d="M705.72,265.36a1.83,1.83,0,0,1-.77-1.54,2,2,0,0,1,1.95-2,1.74,1.74,0,0,1,1.22.46,16.33,16.33,0,0,0,11.31,4.25c4.81,0,8-2.56,8-6.09v-.11c0-3.32-1.79-5.22-9.32-6.8-8.24-1.79-12-4.46-12-10.34v-.1c0-5.63,5-9.78,11.77-9.78a18.29,18.29,0,0,1,11.41,3.53,2.08,2.08,0,0,1,.87,1.64,2,2,0,0,1-2,1.95,1.91,1.91,0,0,1-1.17-.36,15,15,0,0,0-9.27-3.12c-4.65,0-7.62,2.56-7.62,5.78v.1c0,3.38,1.84,5.27,9.72,7s11.67,4.66,11.67,10.13V260c0,6.14-5.12,10.13-12.23,10.13A20.94,20.94,0,0,1,705.72,265.36Z"/><path class="cls-5" d="M738.17,251.85v-.1c0-9.88,7.42-18.53,18.32-18.53s18.22,8.55,18.22,18.42v.11c0,9.87-7.42,18.52-18.32,18.52S738.17,261.73,738.17,251.85Zm32.34,0v-.1c0-8.14-5.94-14.79-14.12-14.79s-14,6.55-14,14.68v.11c0,8.13,5.94,14.79,14.13,14.79S770.51,260,770.51,251.85Z"/><path class="cls-5" d="M783.26,235.63a2,2,0,1,1,4,0v30.29h18.58a1.88,1.88,0,0,1,1.84,1.89,1.84,1.84,0,0,1-1.84,1.85H785.25a2,2,0,0,1-2-2.05Z"/><path class="cls-5" d="M813.35,254.66v-19a2,2,0,1,1,4,0v18.78c0,7.72,4.15,12.07,11,12.07,6.6,0,10.79-4,10.79-11.82v-19a2,2,0,1,1,4.05,0v18.73c0,10.44-6,15.86-15,15.86S813.35,264.8,813.35,254.66Z"/><path class="cls-5" d="M862.23,237.57H851.84a1.88,1.88,0,0,1-1.89-1.84,1.92,1.92,0,0,1,1.89-1.89h24.87a1.92,1.92,0,0,1,1.89,1.89,1.88,1.88,0,0,1-1.89,1.84H866.32v30.3a2,2,0,0,1-4.09,0Z"/><path class="cls-5" d="M886.28,235.63a2,2,0,1,1,4.05,0v32.24a2,2,0,1,1-4.05,0Z"/><path class="cls-5" d="M899.23,251.85v-.1c0-9.88,7.42-18.53,18.32-18.53s18.22,8.55,18.22,18.42v.11c0,9.87-7.42,18.52-18.32,18.52S899.23,261.73,899.23,251.85Zm32.35,0v-.1c0-8.14-5.94-14.79-14.13-14.79s-14,6.55-14,14.68v.11c0,8.13,5.94,14.79,14.12,14.79S931.58,260,931.58,251.85Z"/><path class="cls-5" d="M944.32,235.68a2,2,0,0,1,2-2h.56a2.47,2.47,0,0,1,2,1.18l21.75,27.74v-27a2,2,0,1,1,3.94,0v32.34a1.82,1.82,0,0,1-1.84,1.89h-.21a2.78,2.78,0,0,1-2.1-1.23l-22.21-28.4v27.74a2,2,0,1,1-3.94,0Z"/></g></g></svg>