<svg xmlns="http://www.w3.org/2000/svg" viewBox="0 0 385.39 516.7"><defs><style>.cls-1{fill:#0a6777;}.cls-1,.cls-2,.cls-3{fill-rule:evenodd;}.cls-2{fill:#00969b;}.cls-3{fill:#04afa9;}</style></defs><g id="Layer_2" data-name="Layer 2"><g id="Layer_1-2" data-name="Layer 1"><polygon class="cls-1" points="385.39 64.19 244.09 0 0 107.18 0 314.64 0 314.64 141.3 378.82 192.69 356.35 192.69 356.25 385.39 263.42 385.39 64.19"/><polygon class="cls-1" points="263.35 255.66 122.04 191.47 0 245.06 0 452.52 0 452.52 141.3 516.7 192.69 494.23 192.69 494.13 263.35 463.11 263.35 255.66"/><polygon class="cls-2" points="141.3 516.7 141.3 173.94 0 107.18 0 452.52 141.3 516.7"/><polygon class="cls-3" points="141.3 173.94 385.39 64.19 244.09 0 0 107.18 141.3 173.94"/></g></g></svg>